<svg width="28" height="28" fill="none" xmlns="http://www.w3.org/2000/svg"><path fill-rule="evenodd" clip-rule="evenodd" d="M8.227.667h11.56c4.52 0 7.546 3.173 7.546 7.893v10.894c0 4.706-3.026 7.88-7.546 7.88H8.227c-4.52 0-7.56-3.174-7.56-7.88V8.56c0-4.72 3.04-7.893 7.56-7.893zm5.013 17.32l6.333-6.334a1.175 1.175 0 000-1.653 1.175 1.175 0 00-1.653 0l-5.507 5.507-2.333-2.334a1.175 1.175 0 00-1.653 0 1.175 1.175 0 000 1.653l3.173 3.16c.227.227.52.334.813.334.307 0 .6-.107.827-.334z" fill="#69B99D"/></svg>