<?xml version="1.0" encoding="utf-8"?><svg xmlns="http://www.w3.org/2000/svg" xmlns:xlink="http://www.w3.org/1999/xlink"><symbol viewBox="0 0 9 16" id="facebook" xmlns="http://www.w3.org/2000/svg"><path d="M8.286.857H6.143A3.571 3.571 0 002.57 4.43v2.143H.43v2.857H2.57v5.714H5.43V9.43H7.57l.715-2.857H5.429V4.429a.714.714 0 01.714-.714h2.143V.857z"/></symbol><symbol viewBox="0 0 14 14" id="inst" xmlns="http://www.w3.org/2000/svg"><path d="M7 4.679a2.321 2.321 0 100 4.643 2.321 2.321 0 000-4.643z"/><path fill-rule="evenodd" clip-rule="evenodd" d="M3.264.63a33.908 33.908 0 017.472 0 2.957 2.957 0 012.609 2.58 32.632 32.632 0 010 7.58 2.957 2.957 0 01-2.609 2.58c-2.463.276-5.01.276-7.472 0a2.957 2.957 0 01-2.609-2.58 32.622 32.622 0 010-7.58A2.957 2.957 0 013.264.63zm7.308 2.084a.714.714 0 100 1.43.714.714 0 000-1.43zM3.607 7a3.393 3.393 0 116.786 0 3.393 3.393 0 01-6.786 0z"/></symbol><symbol viewBox="0 0 16 15" id="star-rate" xmlns="http://www.w3.org/2000/svg"><path d="M12.17 14.75a.75.75 0 01-.345-.083L8 12.665l-3.825 2.002a.75.75 0 01-1.088-.795l.75-4.222-3.09-3A.75.75 0 01.56 5.9a.75.75 0 01.607-.51l4.275-.623L7.325.92a.75.75 0 011.35 0l1.905 3.84 4.275.622a.75.75 0 01.607.51.75.75 0 01-.187.75l-3.09 3 .75 4.223a.75.75 0 01-.3.75.75.75 0 01-.465.135z"/></symbol><symbol viewBox="0 0 16 12" id="youtube" xmlns="http://www.w3.org/2000/svg"><path fill-rule="evenodd" clip-rule="evenodd" d="M4.42.922a45.891 45.891 0 017.16 0l1.6.125c.891.07 1.62.738 1.768 1.62.369 2.207.369 4.46 0 6.666a1.947 1.947 0 01-1.768 1.62l-1.6.125a45.892 45.892 0 01-7.16 0l-1.6-.125a1.947 1.947 0 01-1.768-1.62 20.225 20.225 0 010-6.666 1.947 1.947 0 011.768-1.62l1.6-.125zm2.151 6.843v-3.53c0-.166.182-.269.325-.183l2.94 1.764a.214.214 0 010 .368l-2.94 1.764a.214.214 0 01-.325-.183z"/></symbol></svg>